<svg xmlns="http://www.w3.org/2000/svg" id="Logo_BOOT10" data-name="Logo BOOT10" preserveAspectRatio="xMinYMid meet" viewBox="0 0 500 73.97">
  <g id="Logo_BOOT10-2" data-name="Logo BOOT10">
    <path d="M83,32a8.35,8.35,0,0,0-6.58,2.83,10.76,10.76,0,0,0-2.49,7.4,10.58,10.58,0,0,0,2.49,7.36A8.47,8.47,0,0,0,83,52.39a8.37,8.37,0,0,0,6.54-2.77A10.58,10.58,0,0,0,92,42.26a10.75,10.75,0,0,0-2.48-7.42A8.3,8.3,0,0,0,83,32Z" transform="translate(0 0)" style="fill: #fff;fill-rule: evenodd"/>
    <path d="M146.63,32a8.32,8.32,0,0,0-6.57,2.83,10.76,10.76,0,0,0-2.49,7.4,10.54,10.54,0,0,0,2.49,7.36,9.14,9.14,0,0,0,13.11,0,10.58,10.58,0,0,0,2.48-7.36,10.75,10.75,0,0,0-2.48-7.42A8.29,8.29,0,0,0,146.63,32Z" transform="translate(0 0)" style="fill: #fff;fill-rule: evenodd"/>
    <path d="M186.47,1.25V11.7h-4c-13.72-17.07-41.92-15-53.33,3.51a33.09,33.09,0,0,0-5.66,4.41c-4-10.11-13-17-23.56-19-18.76-3.26-26.83,6.94-39.1,18.1C60.48-.95,38.36,1.25,24.93,1.25H10.45V11.7H0V72.61H29.27c9.32-.12,19.29-2.56,22.65-12.36a23.4,23.4,0,0,0,3.16-1.5c12.1,20.53,43.45,20,55.77.08a29.2,29.2,0,0,0,5.7-4.44c9,23.19,41.59,26,56.22,7,4.46-6.09,10.78-8.85,14-16.52V72.61h26.51V62.16h10.45V36.48H224V26h10.45V1.25ZM54.62,54.72c-3.37,2.55-8.36,3.83-14.93,3.83H14.06V4.87H39.75q8.27,0,12.88,3.86T57.25,19.5a11.88,11.88,0,0,1-2.17,7.31,10.17,10.17,0,0,1-6.19,3.8q5.46,1.13,8.14,4.28a12.66,12.66,0,0,1,2.68,8.48Q59.71,50.9,54.62,54.72Zm12.64-3.83a29,29,0,0,0,5.46,5.6,31.09,31.09,0,0,0,2.73,2C70.09,61.9,66.33,55.68,67.26,50.89Zm52.81-8.1A27.31,27.31,0,0,1,114,51.88a28.08,28.08,0,0,1-9.3,6,31.19,31.19,0,0,1-22.45,0,27.8,27.8,0,0,1-9.33-6.09,26.09,26.09,0,0,1-6-8.95,29.11,29.11,0,0,1-2-11,29.34,29.34,0,0,1,2-11.07,26,26,0,0,1,6-9,27.7,27.7,0,0,1,9.29-6,31.68,31.68,0,0,1,22.58,0,28.07,28.07,0,0,1,9.33,6,27.14,27.14,0,0,1,6,9,29,29,0,0,1,2.07,11A28.63,28.63,0,0,1,120.07,42.79Zm10.82,8.1a28.91,28.91,0,0,0,5.45,5.6,29.81,29.81,0,0,0,2.74,2C133.71,61.9,130,55.68,130.89,50.89Zm52.81-8.1a27.31,27.31,0,0,1-6.12,9.09,28.29,28.29,0,0,1-9.3,6,31.22,31.22,0,0,1-22.46,0,27.76,27.76,0,0,1-9.32-6.09,26,26,0,0,1-6.05-8.95,29.31,29.31,0,0,1-2-11,29.54,29.54,0,0,1,2-11.07,25.86,25.86,0,0,1,6.05-9,27.66,27.66,0,0,1,9.28-6,31.68,31.68,0,0,1,22.58,0,28.07,28.07,0,0,1,9.33,6,27,27,0,0,1,6,9,29,29,0,0,1,2.08,11A28.63,28.63,0,0,1,183.7,42.79Zm47.15-20.36H220.11V58.55H200.82V22.43H190.08V4.87h40.77Z" transform="translate(0 0)" style="fill: #fff;fill-rule: evenodd"/>
    <path d="M354.31,31.11c0-11.27-4.2-23.08-15-28.16A29.42,29.42,0,0,0,319.1,1.73a24.2,24.2,0,0,0-14,11.48,24.14,24.14,0,0,0-10,8.66V1.58H260.54V12H249.49V35.55h8V72.44h26.59V62.06h10.57c4.94,8.09,13.24,12.1,22.61,11.8,9.23-.1,17.2-4.52,21.7-12.66C350.62,55.89,354.61,43.06,354.31,31.11Zm-62.8,27.3H272.22V21.52h-8V5.23h27.32Zm53-6q-6.12,7.41-17,7.41t-16.9-7.49Q304.5,44.88,304.5,32t6.18-20.38q6.18-7.41,16.91-7.42t17,7.37q6.12,7.37,6.13,20.43T344.54,52.43Z" transform="translate(0 0)" style="fill: #fff"/>
    <path d="M481.22,36.94V.68H454.59V11.07H452V.68H426.14V11.07h-4.2L415.77.68H391.11V11.07H380.46V38.3a16.25,16.25,0,0,0-9.79.82c-3.89,1.68-7.18,5.2-7.78,9.5-6.13,1.19-11.36,6.6-10.74,13.09.52,6.95,7.38,11.65,14,11.49,6.34.15,13-4.16,14-10.72l.31-.06v9.64h25.93V61.67h4l6.15,10.39h24.8V61.67h2.56V72.06h45.41V61.67H500V36.94Zm-97,19.63a11.91,11.91,0,0,1-14.83,0,7.89,7.89,0,0,1,0-12.42,11.87,11.87,0,0,1,14.8,0,7.87,7.87,0,0,1,0,12.42ZM448.38,58H429.31L412.8,30.14c.2,1.2.34,2.49.44,3.88s.15,2.92.15,4.63V58H394.76V4.33h18.93l16.69,28.09a34.09,34.09,0,0,1-.47-4.14q-.12-2.28-.12-6v-18h18.59Zm48,0H458.24V4.33h19.33V40.59h18.78Z" transform="translate(0 0)" style="fill: #fff"/>
  </g>
</svg>