<svg viewBox="0 0 64 64" style="color: #ff369b" xmlns="http://www.w3.org/2000/svg">
<path d="M39.6626 57.5001C41.8292 57.0001 46.8626 56.4001 49.6626 58.0001C50.8677 58.6887 53.8626 58.5 56.6626 56.5C58.6626 55.3333 62.1626 51.5001 58.6626 47C55.6626 43.5001 48.2626 36 44.6626 34C41.6626 32 40.1626 32 36.6626 32C36.1615 32.0001 32.6622 32.0004 30.6626 34C30.6626 34 27.2036 36.6097 25.6626 40.0001C23.9959 43.6667 20.7184 52.8141 20.6626 53C20.1626 54.6667 19.4626 58.6 20.6626 61C21.8626 63.4 24.4959 64 25.6626 64C27.1626 64 30.6626 63.6 32.6626 62C35.1626 60 36.6626 57.9541 39.6626 57.5001Z" fill="currentColor"/>
<path d="M59.375 18C60.605 19.8451 61.575 28 58.375 32C57.575 33 56.375 35.0714 53.375 35.5C52.375 35.6429 50.375 35.8 48.375 33C46.375 30.2 46.875 24.5 47.875 22L47.8966 21.9567C49.0643 19.6095 50.8966 15 54.3751 15C57.5727 15 58.375 16.5 59.375 18Z" fill="currentColor"/>
<path d="M3.69727 30.8858C3.31749 33.0706 5.72478 40.9222 10.268 43.2885C11.4038 43.88 13.3384 45.2901 16.2558 44.4701C17.2283 44.1968 19.1213 43.5326 19.8196 40.1633C20.5179 36.7939 17.7577 31.7818 15.833 29.8989L15.7958 29.868C13.7793 28.1926 10.241 24.7163 7.059 26.1216C4.13391 27.4135 4.00602 29.1097 3.69727 30.8858Z" fill="currentColor"/>
<path d="M45.299 22.5578C46.1324 20.8911 47.499 16.3578 46.299 11.5578C44.799 5.55778 42.7991 3.55778 39.299 1.55778C36.7991 0.129247 32.799 1.55778 31.299 4.55778C29.799 7.55778 29.799 12.5579 30.299 14.5579C30.799 16.5579 32.2991 22.0579 35.7991 24.5579C39.2991 27.0579 43.299 27.0577 45.299 22.5578Z" fill="currentColor"/>
<path d="M19.236 29.8605C17.6481 28.8853 14.0935 25.7575 12.5775 21.0478C10.6826 15.1605 11.3247 12.406 13.2406 8.85922C14.6091 6.32588 18.7602 5.42647 21.6183 7.18182C24.4764 8.93717 27.1171 13.1831 27.7487 15.1455C28.3804 17.1079 30.0112 22.5706 28.3594 26.5419C26.7076 30.5132 23.3108 32.6255 19.236 29.8605Z" fill="currentColor"/>
</svg>
